# xmcd
#
# Track frame offsets:
#	150
#	12863
#	28542
#	40441
#	53292
#	65986
#	81401
#	92954
#	103885
#	114401
#	127366
#	143431
#	155839
#	166900
#	179433
#	192711
#	206901
#	221737
#	236558
#	250351
#
# Disc length: 3509 seconds
#
# Revision: 1
# Processed by: cddbd v1.5PL3 Copyright (c) Steve Scherf et al.
# Submitted via: audiograbber 1.80
#
DISCID=330db314
DTITLE=Joan Sebastian - Sembrador de amor
DYEAR=1900
DGENRE=
TTITLE0=Un Cariño como tu
TTITLE1=Embustero
TTITLE2=El viejito joven
TTITLE3=La prietita que yo quiero
TTITLE4=Mayra
TTITLE5=Me la escondieron sus padres
TTITLE6=Soy como quiero ser
TTITLE7=Quiereme 
TTITLE8=Ojitos de golondrina
TTITLE9=Verdad que duele
TTITLE10=El precio
TTITLE11=Ahora si va en serio
TTITLE12=La ventana
TTITLE13=Aunque me duela el alma
TTITLE14=Torito serrano
TTITLE15=Como tu decidas
TTITLE16=Enamorarse asi
TTITLE17=Un nuevo nido
TTITLE18=Que ya no estás
TTITLE19=Cariño feo
EXTD=
EXTT0=
EXTT1=
EXTT2=
EXTT3=
EXTT4=
EXTT5=
EXTT6=
EXTT7=
EXTT8=
EXTT9=
EXTT10=
EXTT11=
EXTT12=
EXTT13=
EXTT14=
EXTT15=
EXTT16=
EXTT17=
EXTT18=
EXTT19=
PLAYORDER=
